# xmcd
#
# Track frame offsets:
#	150
#	17610
#	34702
#	52152
#	69610
#
# Disc length: 1190 seconds
#
# Revision: 1
# Processed by: cddbd v1.5.2PL0 Copyright (c) Steve Scherf et al.
# Submitted via: audiograbber 1.82.01
#
DISCID=3e04a405
DTITLE=Rogers, Kenny - The Gift [CD 1)
DYEAR=1996
DGENRE=
TTITLE0=Mary, Did You Know
TTITLE1=Pretty Little Baby Child
TTITLE2=What A Wonderful Beginning
TTITLE3=It's The Messiah
TTITLE4=Chosen One Montage (Excerpt)
EXTD=
EXTT0=
EXTT1=
EXTT2=
EXTT3=
EXTT4=
PLAYORDER=
